# xmcd
#
# Track frame offsets:
#	150
#	27404
#	58799
#	89458
#	120036
#	157186
#	200366
#	231268
#	263190
#	277525
#
# Disc length: 4459 seconds
#
# Revision: 0
# Processed by: cddbd v1.5.2PL0 Copyright (c) Steve Scherf et al.
# Submitted via: audiograbber 1.83.01
#
DISCID=7f11690a
DTITLE=Grateful Dead - 93-06-16 Freedom Hall, Louisville KY
DYEAR=1900
DGENRE=
TTITLE0=Cold Rain and Snow
TTITLE1=The Same Thing
TTITLE2=Peggy-O
TTITLE3=Tom Thumb's Blues
TTITLE4=Ramble On Rose
TTITLE5=Eternity
TTITLE6=Brown Eyed Women
TTITLE7=Easy Answers
TTITLE8=Don't Ease Me In
TTITLE9=Foolish Heart
EXTD=
EXTT0=
EXTT1=
EXTT2=
EXTT3=
EXTT4=
EXTT5=
EXTT6=
EXTT7=
EXTT8=
EXTT9=
PLAYORDER=
